<svg width="70" height="70" viewBox="0 0 70 70" fill="none" xmlns="http://www.w3.org/2000/svg">
<g id="Group 80">
<path id="Rectangle 80" d="M0 10C0 4.47715 4.47715 0 10 0H60C65.5228 0 70 4.47715 70 10V70H0V10Z" fill="#388718"/>
<g id="Group">
<path id="Vector" d="M13.2217 18.9326C13.4273 18.0995 13.7302 17.3204 14.3578 16.7036C15.191 15.8921 16.1865 15.5566 17.3335 15.5566C23.8041 15.5675 30.264 15.5566 36.7346 15.5566C37.9682 15.5566 39.2125 15.5566 40.4461 15.5566C42.8266 15.5675 44.4929 17.223 44.4929 19.6035C44.4929 24.6891 44.4929 29.7748 44.4929 34.8604C44.4929 37.2085 42.8266 38.8856 40.4677 38.8856C36.5182 38.8965 32.5796 38.8965 28.6301 38.8856C28.1215 38.8856 27.6779 39.0155 27.2559 39.2968C25.0701 40.7684 22.8844 42.2292 20.6878 43.6899C20.439 43.8523 20.1576 44.0037 19.8763 44.0578C19.0756 44.1985 18.4047 43.5926 18.4047 42.7594C18.3939 41.4934 18.4047 40.2274 18.4047 38.8856C17.9935 38.8856 17.5932 38.8856 17.2036 38.8856C15.5589 38.864 14.347 38.1282 13.6004 36.6566C13.4273 36.2995 13.3407 35.8992 13.2217 35.5205C13.2217 29.9912 13.2217 24.4619 13.2217 18.9326ZM28.814 25.9335C31.768 25.9335 34.722 25.9335 37.6652 25.9335C37.8275 25.9335 37.979 25.9443 38.1413 25.9227C38.8446 25.8361 39.2883 25.3384 39.2883 24.635C39.2883 23.9642 38.8554 23.4556 38.1846 23.3582C38.0115 23.3366 37.8383 23.3366 37.6652 23.3366C31.7897 23.3366 25.9141 23.3366 20.0386 23.3366C19.7789 23.3366 19.5192 23.3582 19.2703 23.4231C18.8375 23.5422 18.567 23.8451 18.4696 24.2888C18.2749 25.2735 18.8051 25.9227 19.8114 25.9227C22.8303 25.9335 25.8276 25.9335 28.814 25.9335ZM24.9403 31.1165C26.6716 31.1165 28.392 31.1273 30.1233 31.1165C31.1296 31.1165 31.6598 30.4457 31.4542 29.4718C31.3352 28.8659 30.8375 28.5304 30.0476 28.5304C26.6607 28.5304 23.2847 28.5304 19.8979 28.5304C19.6815 28.5304 19.4651 28.5521 19.2595 28.617C18.8375 28.736 18.5778 29.0282 18.4804 29.461C18.264 30.4565 18.8051 31.1165 19.8438 31.1273C21.5426 31.1165 23.2415 31.1165 24.9403 31.1165Z" fill="white"/>
<path id="Vector_2" d="M47.1007 25.9452C49.3947 25.9452 51.6237 25.8803 53.8527 25.9669C55.887 26.0426 57.4451 27.7306 57.4559 29.7757C57.4776 34.9912 57.4776 40.2067 57.4559 45.4113C57.4451 47.5538 55.7571 49.2093 53.6038 49.2634C53.171 49.2743 52.749 49.2634 52.2729 49.2634C52.2729 49.8802 52.2729 50.4537 52.2729 51.0272C52.2729 51.7521 52.2837 52.4663 52.2729 53.1913C52.2513 54.1218 51.3748 54.6953 50.5092 54.3599C50.3144 54.2841 50.1196 54.1651 49.9465 54.0461C47.6742 52.5312 45.4019 51.0055 43.1296 49.4907C42.9348 49.3608 42.6535 49.2743 42.4154 49.2743C38.3577 49.2634 34.2892 49.2634 30.2316 49.2634C28.5652 49.2634 27.31 48.5385 26.585 47.0452C26.3578 46.5691 26.2604 46.0065 26.2063 45.4654C26.1414 44.7837 26.1739 44.0804 26.1955 43.3987C26.2063 43.2472 26.3145 43.0525 26.4336 42.9551C27.0828 42.5006 27.7428 42.057 28.4137 41.6458C28.5868 41.5376 28.8141 41.4943 29.0197 41.4943C32.8501 41.4835 36.6806 41.4943 40.511 41.4835C43.7355 41.4727 46.3325 39.3519 46.96 36.2031C47.0574 35.727 47.0899 35.2292 47.0899 34.7423C47.1007 31.9723 47.1007 29.213 47.1007 26.443C47.1007 26.2915 47.1007 26.14 47.1007 25.9452Z" fill="white"/>
</g>
</g>
</svg>
