<svg width="70" height="70" viewBox="0 0 70 70" fill="none" xmlns="http://www.w3.org/2000/svg">
<g id="Group 81">
<path id="Rectangle 79" d="M0 10C0 4.47715 4.47715 0 10 0H60C65.5228 0 70 4.47715 70 10V70H0V10Z" fill="#388718"/>
<g id="Group">
<path id="Vector" d="M31.243 17.8887C33.7014 17.8887 36.1684 17.8887 38.6268 17.8887C39.4234 18.1628 39.8089 18.7281 39.9031 19.559C40.0316 20.6983 40.2372 21.829 40.3828 22.9682C40.4085 23.1909 40.5113 23.2937 40.6912 23.3965C41.2908 23.7306 41.8818 24.0732 42.4557 24.4244C42.627 24.5272 42.7641 24.5443 42.9525 24.4672C44.0575 24.0132 45.1625 23.5764 46.2761 23.131C47.2869 22.7284 47.9807 22.9682 48.5203 23.9019C49.5654 25.7178 50.619 27.5252 51.664 29.3412C52.2036 30.2749 52.0495 31.0372 51.1929 31.7054C50.2592 32.4335 49.3255 33.1616 48.4004 33.8982C48.2891 33.9839 48.2034 34.1723 48.2034 34.3094C48.1863 35.0289 48.1863 35.7399 48.2034 36.4594C48.2034 36.605 48.2976 36.7849 48.409 36.8706C49.3512 37.6244 50.3106 38.361 51.2528 39.1062C52.0409 39.7315 52.1951 40.5025 51.6897 41.3676C50.6275 43.2093 49.5654 45.0595 48.4946 46.8926C47.9721 47.7834 47.2526 48.0318 46.2932 47.6464C45.1711 47.201 44.0575 46.747 42.9354 46.3101C42.8069 46.2587 42.6185 46.2587 42.5071 46.3187C41.8561 46.6699 41.2222 47.0468 40.5884 47.4322C40.4942 47.4922 40.4085 47.6292 40.3914 47.7406C40.2029 48.9655 40.023 50.1904 39.8517 51.4239C39.7232 52.3576 39.1322 52.8887 38.1985 52.8887C36.0228 52.8887 33.8471 52.8887 31.6713 52.8887C30.7377 52.8887 30.1381 52.349 30.0096 51.4239C29.8383 50.199 29.6584 48.9655 29.4699 47.7406C29.4528 47.6207 29.35 47.4836 29.2386 47.4151C28.6305 47.0382 28.0137 46.6784 27.3799 46.3358C27.2599 46.2673 27.0544 46.2587 26.9173 46.3101C25.8037 46.7384 24.6988 47.1924 23.5938 47.6292C22.583 48.0318 21.8892 47.8006 21.3495 46.8669C20.2959 45.0766 19.2509 43.2607 18.2058 41.4533C17.6662 40.511 17.8118 39.7487 18.6684 39.0891C19.6021 38.361 20.5358 37.6329 21.4609 36.8963C21.5722 36.8106 21.6579 36.6222 21.6664 36.4851C21.6836 35.7656 21.6836 35.0546 21.6664 34.3351C21.6664 34.1895 21.5808 34.0096 21.4694 33.9239C20.5358 33.1787 19.5935 32.442 18.6513 31.7054C17.829 31.0629 17.6748 30.292 18.1973 29.3926C19.2337 27.5509 20.2959 25.7178 21.3581 23.8848C21.872 22.9939 22.6087 22.7455 23.5595 23.1224C24.6902 23.5764 25.8123 24.0304 26.9516 24.4672C27.0715 24.5186 27.2599 24.4929 27.3799 24.433C28.0052 24.0903 28.6219 23.722 29.2386 23.3537C29.3414 23.2851 29.4528 23.1481 29.4699 23.0367C29.6412 21.9317 29.8211 20.8353 29.941 19.7303C30.0353 18.8566 30.3436 18.1799 31.243 17.8887ZM40.7511 35.4229C40.7683 32.2022 38.1814 29.5896 34.9692 29.5725C31.7484 29.5553 29.1273 32.1422 29.1102 35.3458C29.093 38.5837 31.6799 41.2049 34.9092 41.2134C38.13 41.2306 40.7426 38.6437 40.7511 35.4229Z" fill="white"/>
</g>
</g>
</svg>
